<?xml version="1.0" encoding="iso-8859-1"?>
<!-- Generator: Adobe Illustrator 19.0.0, SVG Export Plug-In . SVG Version: 6.00 Build 0)  -->
<svg version="1.1" id="Capa_1" xmlns="http://www.w3.org/2000/svg" xmlns:xlink="http://www.w3.org/1999/xlink" x="0px" y="0px"
	 viewBox="0 0 511.52 511.52" style="enable-background:new 0 0 511.52 511.52;" xml:space="preserve">
<path style="fill:#F3C432;" d="M285.264,64.864C178.416,186.8,122.848,347.12,133.36,511.52c3.136-0.208,6.256-0.4,9.392-0.608
	C132.4,349.024,187.12,191.152,292.336,71.072C289.984,69.008,287.616,66.944,285.264,64.864z"/>
<g>
	<path style="fill:#FFD83B;" d="M76.448,248.272c-24.624,74.08,12.288,141.936,65.232,146.56
		C149.408,330.88,126.656,266.896,76.448,248.272z"/>
	<path style="fill:#FFD83B;" d="M259.728,309.184c-17.264,50.624-64.768,90.528-118.048,85.648
		C150.368,327.12,209.984,290.512,259.728,309.184z"/>
	<path style="fill:#FFD83B;" d="M125.792,134.288c-37.12,68.672-12.464,141.392,38.832,155.232
		C183.248,228.416,171.968,161.376,125.792,134.288z"/>
	<path style="fill:#FFD83B;" d="M295.648,226.208c-25.808,46.864-79.424,77.472-131.024,63.328
		C184.832,224.896,249.888,199.136,295.648,226.208z"/>
	<path style="fill:#FFD83B;" d="M195.264,29.328c-49.008,61.488-37.424,137.36,10.624,160.016
		C234.928,132.496,235.92,64.144,195.264,29.328z"/>
	<path style="fill:#FFD83B;" d="M346.224,149.808c-33.92,41.904-92.016,62.544-140.32,39.536
		C237.136,129.296,305.968,115.04,346.224,149.808z"/>
	<path style="fill:#FFD83B;" d="M358.672,0c-13.552,59.104-57.52,107.552-114.448,125.392C237.984,64.992,296.928,0.144,358.672,0z"
		/>
</g>
<g>
	<path style="fill:#F3C432;" d="M165.296,410.112c-8.256,4.816-15.744,11.456-22.256,18.864c-1.12,15.888-1.632,31.872-1.504,47.92
		c4.224-23.36,15.472-42.272,29.776-54.544c21.648-18.816,45.024-21.104,70.048-17.168
		C215.808,396.672,191.28,394.848,165.296,410.112z"/>
	<path style="fill:#F3C432;" d="M113.648,420.896c7.184,6.752,13.488,14.832,19.088,23.088c-0.736,16.192-0.832,32.48-0.288,48.816
		c-5.28-24.08-14.848-44.048-26.848-59.648c-21.008-27.264-42.64-34.624-65.008-36.176C64.256,393.2,87.888,396.448,113.648,420.896
		z"/>
	<path style="fill:#F3C432;" d="M423.024,219.12c-69.712,79.552-105.968,184.16-99.12,291.44c2.048-0.128,4.08-0.256,6.128-0.384
		c-6.752-105.632,28.96-208.656,97.6-286.992C426.112,221.824,424.56,220.48,423.024,219.12z"/>
</g>
<g>
	<path style="fill:#FFD83B;" d="M286.784,338.8c-16.064,48.336,8.016,92.608,42.56,95.632
		C334.384,392.688,319.536,350.944,286.784,338.8z"/>
	<path style="fill:#FFD83B;" d="M406.368,378.528c-11.264,33.024-42.272,59.072-77.024,55.888
		C335.008,390.24,373.904,366.352,406.368,378.528z"/>
	<path style="fill:#FFD83B;" d="M318.96,264.416c-24.224,44.8-8.128,92.256,25.344,101.296
		C356.464,325.84,349.104,282.096,318.96,264.416z"/>
	<path style="fill:#FFD83B;" d="M429.792,324.4c-16.832,30.576-51.824,50.544-85.488,41.312
		C357.504,323.536,399.952,306.72,429.792,324.4z"/>
	<path style="fill:#FFD83B;" d="M364.304,195.936c-31.984,40.128-24.416,89.632,6.928,104.4
		C390.176,263.248,390.832,218.64,364.304,195.936z"/>
	<path style="fill:#FFD83B;" d="M462.8,274.544c-22.128,27.344-60.032,40.816-91.568,25.792
		C391.616,261.168,436.544,251.872,462.8,274.544z"/>
	<path style="fill:#FFD83B;" d="M470.928,176.8c-8.832,38.56-37.536,70.176-74.672,81.808
		C392.176,219.2,430.624,176.896,470.928,176.8z"/>
</g>
<g>
	<path style="fill:#F3C432;" d="M344.752,444.4c-5.392,3.136-10.272,7.472-14.528,12.32c-0.736,10.368-1.072,20.8-0.976,31.264
		c2.768-15.36,10.096-27.584,19.424-35.6c13.888-12.08,28.992-13.824,45.712-11.2C378.144,435.76,362.048,434.224,344.752,444.4z"/>
	<path style="fill:#F3C432;" d="M311.04,451.424c4.688,4.416,8.8,9.68,12.464,15.072c-0.48,10.56-0.544,21.184-0.192,31.84
		c-3.456-15.792-9.696-28.736-17.52-38.928c-13.568-17.6-27.68-22.576-42.416-23.6C278.88,433.344,294.352,435.568,311.04,451.424z"
		/>
</g>
<g>
	<path style="fill:#E8EFF3;" d="M122.672,104.752c0-6.864-11.504-18.368-18.368-18.368c6.864,0,18.368-11.504,18.368-18.368
		c0,6.864,11.504,18.368,18.368,18.368C134.176,86.384,122.672,97.888,122.672,104.752z"/>
	<path style="fill:#E8EFF3;" d="M331.36,76.592c0-10.816-18.096-28.912-28.912-28.912c10.816,0,28.912-18.096,28.912-28.912
		c0,10.816,18.096,28.912,28.912,28.912C349.456,47.68,331.36,65.776,331.36,76.592z"/>
</g>
<g>
</g>
<g>
</g>
<g>
</g>
<g>
</g>
<g>
</g>
<g>
</g>
<g>
</g>
<g>
</g>
<g>
</g>
<g>
</g>
<g>
</g>
<g>
</g>
<g>
</g>
<g>
</g>
<g>
</g>
</svg>
